<?xml version="1.0" standalone="no"?>
<!DOCTYPE svg PUBLIC "-//W3C//DTD SVG 20010904//EN"
 "http://www.w3.org/TR/2001/REC-SVG-20010904/DTD/svg10.dtd">
<svg version="1.0" xmlns="http://www.w3.org/2000/svg"
 width="700.000000pt" height="700.000000pt" viewBox="0 0 700.000000 700.000000"
 preserveAspectRatio="xMidYMid meet">
<metadata>
Created by potrace 1.11, written by Peter Selinger 2001-2013
</metadata>
<g transform="translate(0.000000,700.000000) scale(0.100000,-0.100000)"
fill="#000000" stroke="none">
<path d="M5073 6625 l0 -375 178 0 179 0 0 375 0 375 -178 0 -179 0 0 -375z"/>
<path d="M5888 6141 c-142 -142 -258 -261 -258 -264 0 -11 235 -247 245 -247
6 0 128 118 273 263 l262 262 -123 123 c-67 67 -127 122 -132 122 -6 0 -126
-116 -267 -259z"/>
<path d="M4983 5760 c-63 -14 -121 -62 -310 -253 -212 -214 -229 -238 -234
-342 -2 -45 -16 -61 -197 -218 -266 -232 -525 -403 -808 -535 -175 -81 -217
-97 -529 -198 -359 -116 -481 -162 -660 -249 -214 -105 -319 -169 -514 -314
-261 -194 -328 -256 -1043 -970 -714 -713 -683 -675 -682 -831 1 -86 22 -153
64 -203 8 -10 366 -371 795 -802 695 -698 786 -787 838 -810 106 -49 232 -43
326 16 24 15 281 263 570 552 573 572 702 704 801 817 36 41 67 77 70 80 16
14 180 222 213 270 232 333 346 564 477 965 158 486 200 598 301 795 145 285
324 537 574 809 89 97 86 95 138 98 91 4 136 36 348 247 127 128 203 212 218
241 34 68 38 147 11 220 -21 56 -41 79 -279 316 -240 240 -290 283 -344 296
-38 8 -111 10 -144 3z"/>
<path d="M6250 5252 l0 -179 375 0 375 1 0 178 0 178 -375 0 -375 0 0 -178z"/>
</g>
</svg>
